<svg width="38" height="38" viewBox="0 0 38 38" fill="none" xmlns="http://www.w3.org/2000/svg">
<path d="M38 4.25521V18.1094L31.6667 11.776L23.2552 20.2865L14.7448 11.776L6.33333 20.2865L0 13.8542V4.25521C0 3.06771 0.412326 2.06163 1.23698 1.23698C2.06163 0.412326 3.06771 0 4.25521 0H33.7448C34.9323 0 35.9384 0.412326 36.763 1.23698C37.5877 2.06163 38 3.06771 38 4.25521ZM31.6667 17.8125L38 24.1458V33.7448C38 34.9323 37.5877 35.9384 36.763 36.763C35.9384 37.5877 34.9323 38 33.7448 38H4.25521C3.06771 38 2.06163 37.5877 1.23698 36.763C0.412326 35.9384 0 34.9323 0 33.7448V19.8906L6.33333 26.224L14.7448 17.7135L23.2552 26.224L31.6667 17.8125Z" fill="#00A483"/>
</svg>
