<svg width="45" height="45" viewBox="0 0 45 45" fill="none" xmlns="http://www.w3.org/2000/svg">
<path d="M45 22.5264L41.1486 17.5095L42.0101 11.2764L36.1318 8.94535L33.8007 3.06697L27.5676 3.92845L22.5 0.0264282L17.4831 3.87778L11.25 3.01629L8.91892 8.89467L3.04054 11.2258L3.90203 17.4589L0 22.5264L3.85135 27.5433L2.98986 33.7764L8.86824 36.1075L11.1993 41.9859L17.4324 41.1244L22.4493 44.9757L27.4662 41.1244L33.6993 41.9859L36.0304 36.1075L41.9088 33.7257L41.0473 27.4926L45 22.5264ZM20.6757 29.8237L13.1757 23.6413L14.7973 21.6649L20.3716 26.2257L29.8986 15.2291L31.8243 16.9014L20.6757 29.8237Z" fill="#00A483"/>
</svg>
