<svg width="42" height="42" viewBox="0 0 42 42" fill="none" xmlns="http://www.w3.org/2000/svg">
<path d="M21 0.6875C9.7998 0.6875 0.6875 9.7998 0.6875 21C0.6875 32.2002 9.7998 41.3125 21 41.3125C32.2002 41.3125 41.3125 32.2002 41.3125 21C41.3125 9.7998 32.2002 0.6875 21 0.6875ZM14.75 28.7637C14.75 29.1781 14.5854 29.5755 14.2924 29.8685C13.9993 30.1616 13.6019 30.3262 13.1875 30.3262H11.625C11.2106 30.3262 10.8132 30.1616 10.5201 29.8685C10.2271 29.5755 10.0625 29.1781 10.0625 28.7637V27.2012C10.0625 26.7868 10.2271 26.3893 10.5201 26.0963C10.8132 25.8033 11.2106 25.6387 11.625 25.6387H13.1875C13.6019 25.6387 13.9993 25.8033 14.2924 26.0963C14.5854 26.3893 14.75 26.7868 14.75 27.2012V28.7637ZM14.75 21.8301C14.75 22.2445 14.5854 22.6419 14.2924 22.9349C13.9993 23.228 13.6019 23.3926 13.1875 23.3926H11.625C11.2106 23.3926 10.8132 23.228 10.5201 22.9349C10.2271 22.6419 10.0625 22.2445 10.0625 21.8301V20.2676C10.0625 19.8532 10.2271 19.4557 10.5201 19.1627C10.8132 18.8697 11.2106 18.7051 11.625 18.7051H13.1875C13.6019 18.7051 13.9993 18.8697 14.2924 19.1627C14.5854 19.4557 14.75 19.8532 14.75 20.2676V21.8301ZM14.75 14.7988C14.75 15.2132 14.5854 15.6107 14.2924 15.9037C13.9993 16.1967 13.6019 16.3613 13.1875 16.3613H11.625C11.2106 16.3613 10.8132 16.1967 10.5201 15.9037C10.2271 15.6107 10.0625 15.2132 10.0625 14.7988V13.2363C10.0625 12.8219 10.2271 12.4245 10.5201 12.1315C10.8132 11.8384 11.2106 11.6738 11.625 11.6738H13.1875C13.6019 11.6738 13.9993 11.8384 14.2924 12.1315C14.5854 12.4245 14.75 12.8219 14.75 13.2363V14.7988ZM31.9375 29.5449H16.7686V26.4199H31.9375V29.5449ZM31.9375 22.6113H16.7686V19.4863H31.9375V22.6113ZM31.9375 15.5801H16.7686V12.4551H31.9375V15.5801Z" fill="#00A483"/>
</svg>
