<svg width="32" height="33" viewBox="0 0 32 33" fill="none" xmlns="http://www.w3.org/2000/svg">
<path d="M28.425 26.9364L20.3094 18.8207C21.5688 17.1926 22.25 15.202 22.25 13.1082C22.25 10.602 21.2719 8.252 19.5031 6.48012C17.7344 4.70825 15.3781 3.73325 12.875 3.73325C10.3719 3.73325 8.01562 4.71137 6.24687 6.48012C4.475 8.24887 3.5 10.602 3.5 13.1082C3.5 15.6114 4.47812 17.9676 6.24687 19.7364C8.01562 21.5082 10.3688 22.4832 12.875 22.4832C14.9688 22.4832 16.9563 21.802 18.5844 20.5457L26.7 28.6582C26.7238 28.6821 26.7521 28.7009 26.7832 28.7138C26.8143 28.7267 26.8476 28.7334 26.8813 28.7334C26.9149 28.7334 26.9482 28.7267 26.9793 28.7138C27.0104 28.7009 27.0387 28.6821 27.0625 28.6582L28.425 27.2989C28.4488 27.2751 28.4677 27.2468 28.4806 27.2157C28.4935 27.1846 28.5001 27.1513 28.5001 27.1176C28.5001 27.084 28.4935 27.0506 28.4806 27.0195C28.4677 26.9884 28.4488 26.9602 28.425 26.9364ZM17.825 18.0582C16.5 19.3801 14.7437 20.1082 12.875 20.1082C11.0062 20.1082 9.25 19.3801 7.925 18.0582C6.60313 16.7332 5.875 14.977 5.875 13.1082C5.875 11.2395 6.60313 9.48012 7.925 8.15825C9.25 6.83637 11.0062 6.10825 12.875 6.10825C14.7437 6.10825 16.5031 6.83325 17.825 8.15825C19.1469 9.48325 19.875 11.2395 19.875 13.1082C19.875 14.977 19.1469 16.7364 17.825 18.0582Z" fill="white"/>
</svg>
