<svg width="22" height="22" viewBox="0 0 22 22" fill="none" xmlns="http://www.w3.org/2000/svg">
<path d="M10.9108 5.48248C10.3669 5.48248 9.83518 5.64377 9.38295 5.94594C8.93071 6.24812 8.57824 6.67761 8.3701 7.1801C8.16196 7.6826 8.1075 8.23553 8.21361 8.76898C8.31972 9.30243 8.58163 9.79243 8.96622 10.177C9.35082 10.5616 9.84082 10.8235 10.3743 10.9296C10.9077 11.0358 11.4606 10.9813 11.9631 10.7732C12.4656 10.565 12.8951 10.2125 13.1973 9.7603C13.4995 9.30807 13.6608 8.77638 13.6608 8.23248C13.6599 7.50339 13.3699 6.8044 12.8544 6.28886C12.3388 5.77331 11.6399 5.48331 10.9108 5.48248ZM10.9108 9.60748C10.6388 9.60748 10.373 9.52684 10.1469 9.37575C9.92074 9.22467 9.7445 9.00992 9.64043 8.75867C9.53636 8.50742 9.50913 8.23096 9.56219 7.96423C9.61524 7.69751 9.7462 7.45251 9.93849 7.26021C10.1308 7.06791 10.3758 6.93696 10.6425 6.8839C10.9092 6.83085 11.1857 6.85808 11.437 6.96215C11.6882 7.06622 11.9029 7.24246 12.054 7.46857C12.2051 7.69469 12.2858 7.96053 12.2858 8.23248C12.2853 8.59703 12.1403 8.94652 11.8826 9.20429C11.6248 9.46206 11.2753 9.60706 10.9108 9.60748Z" fill="#00CBA2"/>
<path d="M16.1951 2.94402C14.8886 1.63779 13.1445 0.861832 11.2994 0.765914C9.45442 0.669997 7.63925 1.26092 6.20428 2.42462C4.76932 3.58833 3.81627 5.24233 3.52909 7.0674C3.24191 8.89247 3.64095 10.7592 4.64919 12.3074L9.84441 20.2829C9.96002 20.4604 10.1181 20.6062 10.3043 20.7071C10.4905 20.8081 10.699 20.8609 10.9108 20.8609C11.1226 20.8609 11.3311 20.8081 11.5173 20.7071C11.7035 20.6062 11.8616 20.4604 11.9772 20.2829L17.1726 12.3074C18.1081 10.8712 18.5215 9.15716 18.3436 7.45244C18.1656 5.74773 17.4071 4.15599 16.1951 2.94402ZM16.0205 11.5568L10.9108 19.4008L5.8011 11.5568C4.23703 9.15579 4.57249 5.94259 6.59873 3.91627C7.16499 3.34999 7.83725 2.90079 8.57712 2.59432C9.31699 2.28785 10.11 2.13011 10.9108 2.13011C11.7116 2.13011 12.5046 2.28785 13.2445 2.59432C13.9844 2.90079 14.6566 3.34999 15.2229 3.91627C17.2491 5.94259 17.5845 9.15579 16.0205 11.5568Z" fill="#00CBA2"/>
</svg>
