<svg width="27" height="27" viewBox="0 0 27 27" fill="none" xmlns="http://www.w3.org/2000/svg">
<g clip-path="url(#clip0)">
<path d="M20.7975 26.58C20.5453 26.5793 20.2938 26.5516 20.0475 26.4975C15.3575 25.5273 11.0367 23.2525 7.5825 19.935C4.202 16.6102 1.85745 12.3769 0.8325 7.7475C0.711646 7.17053 0.741309 6.57217 0.918634 6.00999C1.09596 5.4478 1.41498 4.94071 1.845 4.5375L4.845 1.65C4.99823 1.50509 5.1803 1.39412 5.37931 1.32434C5.57833 1.25455 5.78983 1.22752 6 1.245C6.21792 1.26774 6.42822 1.33794 6.6161 1.45066C6.80398 1.56339 6.96489 1.71591 7.0875 1.8975L10.8375 7.44C10.9781 7.65506 11.046 7.90958 11.0312 8.1661C11.0163 8.42263 10.9195 8.66761 10.755 8.865L8.8725 11.115C9.62224 12.7743 10.684 14.2741 12 15.5325C13.3075 16.8366 14.8529 17.8779 16.5525 18.6L18.885 16.7475C19.0809 16.5927 19.3193 16.5011 19.5685 16.4851C19.8177 16.469 20.0658 16.5291 20.28 16.6575L25.9425 20.3175C26.1368 20.4335 26.3024 20.592 26.4267 20.7811C26.5511 20.9702 26.6311 21.185 26.6607 21.4093C26.6902 21.6337 26.6687 21.8619 26.5975 22.0767C26.5264 22.2916 26.4076 22.4876 26.25 22.65L23.325 25.545C22.9927 25.8756 22.5984 26.1373 22.1646 26.3149C21.7308 26.4925 21.2662 26.5826 20.7975 26.58ZM5.88 2.73L2.88 5.6175C2.63809 5.84291 2.45902 6.12741 2.36039 6.44301C2.26176 6.75862 2.24698 7.09445 2.3175 7.4175C3.27054 11.7616 5.46129 15.7367 8.625 18.8625C11.8756 21.9837 15.9417 24.1233 20.355 25.035C20.6891 25.1048 21.0352 25.0907 21.3625 24.9938C21.6897 24.897 21.9878 24.7204 22.23 24.48L25.155 21.585L19.6875 18.0525L17.1825 20.0475C17.0866 20.1234 16.9736 20.1747 16.8533 20.1969C16.7331 20.2191 16.6092 20.2116 16.4925 20.175C14.4125 19.4086 12.5276 18.1921 10.9725 16.6125C9.36402 15.1104 8.11547 13.2645 7.32 11.2125C7.28635 11.0883 7.28523 10.9575 7.31675 10.8327C7.34828 10.7079 7.41138 10.5933 7.5 10.5L9.525 8.0775L5.88 2.73Z" fill="white" stroke="white" stroke-width="0.7"/>
</g>
<defs>
<clipPath id="clip0">
<rect width="27" height="27" fill="white"/>
</clipPath>
</defs>
</svg>
