<svg width="33" height="34" viewBox="0 0 33 34" fill="none" xmlns="http://www.w3.org/2000/svg">
<path d="M12.2192 29.5666C13.3582 29.5666 14.2817 28.6431 14.2817 27.5041C14.2817 26.365 13.3582 25.4416 12.2192 25.4416C11.0801 25.4416 10.1567 26.365 10.1567 27.5041C10.1567 28.6431 11.0801 29.5666 12.2192 29.5666Z" fill="white"/>
<path d="M24.75 29.5666C25.8891 29.5666 26.8125 28.6431 26.8125 27.5041C26.8125 26.365 25.8891 25.4416 24.75 25.4416C23.6109 25.4416 22.6875 26.365 22.6875 27.5041C22.6875 28.6431 23.6109 29.5666 24.75 29.5666Z" fill="white"/>
<path d="M30.3233 5.15574C30.238 5.05059 30.1305 4.96564 30.0085 4.907C29.8864 4.84835 29.7529 4.81747 29.6175 4.81658H10.5325L11.1283 6.64991H28.4167L25.9692 17.6499H12.2192L8.03 4.38574C7.98468 4.245 7.906 4.1173 7.80065 4.01355C7.6953 3.9098 7.56642 3.83307 7.425 3.78991L3.66666 2.63491C3.5511 2.5994 3.42967 2.587 3.30932 2.59841C3.18896 2.60983 3.07203 2.64484 2.9652 2.70144C2.74946 2.81576 2.58796 3.0111 2.51624 3.24449C2.44453 3.47788 2.46846 3.73021 2.58278 3.94595C2.6971 4.1617 2.89244 4.32319 3.12583 4.39491L6.41666 5.40324L10.6242 18.6949L9.12083 19.9232L9.00166 20.0424C8.6298 20.4709 8.41903 21.0157 8.40564 21.583C8.39226 22.1502 8.5771 22.7043 8.92833 23.1499C9.17817 23.4537 9.49566 23.6949 9.85539 23.8541C10.2151 24.0132 10.6071 24.086 11 24.0666H26.2992C26.5423 24.0666 26.7754 23.97 26.9473 23.7981C27.1193 23.6262 27.2158 23.393 27.2158 23.1499C27.2158 22.9068 27.1193 22.6736 26.9473 22.5017C26.7754 22.3298 26.5423 22.2332 26.2992 22.2332H10.8533C10.7478 22.2296 10.6449 22.1989 10.5547 22.1439C10.4645 22.089 10.39 22.0117 10.3384 21.9195C10.2868 21.8274 10.2599 21.7235 10.2601 21.6178C10.2604 21.5122 10.2879 21.4085 10.34 21.3166L12.5492 19.4832H26.7025C26.9144 19.4884 27.1215 19.42 27.2887 19.2896C27.4558 19.1593 27.5726 18.975 27.6192 18.7682L30.525 5.93491C30.5529 5.79825 30.5492 5.65703 30.5142 5.52201C30.4793 5.38699 30.414 5.26172 30.3233 5.15574Z" fill="white" stroke="white" stroke-width="0.4"/>
</svg>
