<svg width="18" height="20" viewBox="0 0 18 20" fill="none" xmlns="http://www.w3.org/2000/svg">
<g clip-path="url(#clip0)">
<path d="M12.363 9.98001L16.9762 5.52668V14.3825L12.363 9.98001ZM6.4185 10.7342L8.0385 12.2967C8.29275 12.5367 8.62425 12.6817 8.9865 12.6817H8.99925H8.9985H9.009C9.372 12.6817 9.7035 12.5358 9.96075 12.2942L9.9585 12.2958L11.5785 10.7333L16.503 15.4325H1.49625L6.4185 10.7342ZM1.4895 4.47084H16.512L9.29625 11.4342C9.21512 11.5055 9.11469 11.5442 9.01125 11.5442H9.00075H9.0015H8.991C8.88719 11.5443 8.78642 11.5052 8.70525 11.4333L8.706 11.4342L1.4895 4.47084ZM1.02375 5.52584L5.63625 9.97918L1.02375 14.3792V5.52584ZM17.2238 3.49168C17.0438 3.39168 16.8322 3.33334 16.608 3.33334H1.39425C1.17687 3.3334 0.962479 3.3896 0.768 3.49751L0.77625 3.49334C0.54343 3.62094 0.347361 3.81833 0.210191 4.06321C0.0730205 4.3081 0.000215511 4.59073 0 4.87918L0 15.0225C0.000397053 15.433 0.147339 15.8266 0.408585 16.1169C0.669831 16.4071 1.02404 16.5704 1.3935 16.5708H16.6058C16.9752 16.5704 17.3294 16.4071 17.5907 16.1169C17.8519 15.8266 17.9989 15.433 17.9993 15.0225V4.88251V4.87918C17.9993 4.27334 17.685 3.74834 17.2275 3.49584L17.2192 3.49168H17.2238Z" fill="#00CBA2"/>
</g>
<defs>
<clipPath id="clip0">
<rect width="18" height="20" fill="white"/>
</clipPath>
</defs>
</svg>
