<svg width="24" height="23" viewBox="0 0 24 23" fill="none" xmlns="http://www.w3.org/2000/svg">
<path d="M15.5 11.7396C15.5 11.5489 15.421 11.3661 15.2803 11.2313C15.1397 11.0965 14.9489 11.0208 14.75 11.0208H9.75C9.55109 11.0208 9.36032 11.0965 9.21967 11.2313C9.07902 11.3661 9 11.5489 9 11.7396V12.2187C9 13.1771 10.383 13.8958 12.25 13.8958C14.117 13.8958 15.5 13.1771 15.5 12.2187V11.7396ZM14 8.38061C14 7.45582 13.217 6.70832 12.25 6.70832C11.283 6.70832 10.5 7.45486 10.5 8.38061C10.5 8.8254 10.6844 9.25198 11.0126 9.56649C11.3408 9.88101 11.7859 10.0577 12.25 10.0577C12.7141 10.0577 13.1592 9.88101 13.4874 9.56649C13.8156 9.25198 14 8.8254 14 8.38061ZM4 4.31249C4 3.67708 4.26339 3.06769 4.73223 2.61838C5.20107 2.16907 5.83696 1.91666 6.5 1.91666H18C18.3283 1.91666 18.6534 1.97863 18.9567 2.09903C19.26 2.21943 19.5356 2.39591 19.7678 2.61838C19.9999 2.84085 20.1841 3.10497 20.3097 3.39564C20.4353 3.68632 20.5 3.99786 20.5 4.31249V17.9687C20.5 18.1594 20.421 18.3422 20.2803 18.477C20.1397 18.6118 19.9489 18.6875 19.75 18.6875H5.5C5.5 18.9417 5.60536 19.1854 5.79289 19.3651C5.98043 19.5449 6.23478 19.6458 6.5 19.6458H19.75C19.9489 19.6458 20.1397 19.7215 20.2803 19.8563C20.421 19.9911 20.5 20.1739 20.5 20.3646C20.5 20.5552 20.421 20.738 20.2803 20.8728C20.1397 21.0076 19.9489 21.0833 19.75 21.0833H6.5C5.83696 21.0833 5.20107 20.8309 4.73223 20.3816C4.26339 19.9323 4 19.3229 4 18.6875V4.31249ZM5.5 4.31249V17.25H19V4.31249C19 4.05832 18.8946 3.81457 18.7071 3.63485C18.5196 3.45512 18.2652 3.35416 18 3.35416H6.5C6.23478 3.35416 5.98043 3.45512 5.79289 3.63485C5.60536 3.81457 5.5 4.05832 5.5 4.31249Z" fill="#00CBA2"/>
</svg>
