<svg width="23" height="23" viewBox="0 0 23 23" fill="none" xmlns="http://www.w3.org/2000/svg">
<path d="M11.5 1.4375L2.875 4.3125V12.9375C2.875 17.7015 6.73604 21.5625 11.5 21.5625C16.264 21.5625 20.125 17.7015 20.125 12.9375V4.3125L11.5 1.4375ZM18.5078 12.9375C18.5078 16.8075 15.37 19.9453 11.5 19.9453C7.62998 19.9453 4.49219 16.8075 4.49219 12.9375V5.52539L11.5 3.05469L18.5078 5.52539V12.9375Z" fill="#00CBA2"/>
<path d="M8.49921 10.6712C8.42427 10.5959 8.33519 10.5362 8.23709 10.4954C8.13899 10.4546 8.03381 10.4337 7.92758 10.4337C7.82135 10.4337 7.71617 10.4546 7.61807 10.4954C7.51997 10.5362 7.43089 10.5959 7.35595 10.6712C7.28066 10.7461 7.22092 10.8352 7.18016 10.9333C7.13939 11.0314 7.11841 11.1366 7.11841 11.2428C7.11841 11.3491 7.13939 11.4542 7.18016 11.5523C7.22092 11.6504 7.28066 11.7395 7.35595 11.8145L10.2624 14.7209L10.3096 14.7681C10.3805 14.8391 10.4647 14.8954 10.5573 14.9339C10.65 14.9723 10.7494 14.9921 10.8497 14.9921C10.9501 14.9921 11.0495 14.9723 11.1422 14.9339C11.2348 14.8954 11.319 14.8391 11.3899 14.7681L16.41 9.74805C16.481 9.67716 16.5373 9.59296 16.5758 9.50027C16.6142 9.40757 16.634 9.30821 16.634 9.20786C16.634 9.10751 16.6142 9.00815 16.5758 8.91546C16.5373 8.82277 16.481 8.73857 16.41 8.66768L16.3471 8.60479C16.2762 8.53376 16.192 8.47742 16.0993 8.43897C16.0066 8.40053 15.9072 8.38074 15.8069 8.38074C15.7065 8.38074 15.6072 8.40053 15.5145 8.43897C15.4218 8.47742 15.3376 8.53376 15.2667 8.60479L10.8486 13.0206L8.49921 10.6712Z" fill="#00CBA2"/>
</svg>
