<svg width="22" height="22" viewBox="0 0 22 22" fill="none" xmlns="http://www.w3.org/2000/svg">
<path d="M11 12.8333H14.6667V9.16666H11V6.41666L6.41667 11L11 15.5833V12.8333ZM17.4167 2.74999H13.585C13.2 1.68666 12.1917 0.916656 11 0.916656C9.80833 0.916656 8.8 1.68666 8.415 2.74999H4.58333C4.455 2.74999 4.33583 2.75916 4.21667 2.78666C3.92472 2.84791 3.65204 2.9792 3.42209 3.16923C3.19215 3.35925 3.01183 3.60231 2.89667 3.87749C2.805 4.08832 2.75 4.32666 2.75 4.58332V17.4167C2.75 17.6642 2.805 17.9117 2.89667 18.1317C2.98833 18.3517 3.12583 18.5442 3.29083 18.7183C3.53833 18.9658 3.85917 19.1492 4.21667 19.2225C4.33583 19.2408 4.455 19.25 4.58333 19.25H17.4167C18.425 19.25 19.25 18.425 19.25 17.4167V4.58332C19.25 3.57499 18.425 2.74999 17.4167 2.74999ZM11 2.52082C11.3758 2.52082 11.6875 2.83249 11.6875 3.20832C11.6875 3.58416 11.3758 3.89582 11 3.89582C10.6242 3.89582 10.3125 3.58416 10.3125 3.20832C10.3125 2.83249 10.6242 2.52082 11 2.52082ZM17.4167 17.4167H4.58333V4.58332H17.4167V17.4167Z" fill="#00CBA2"/>
</svg>
