<svg width="26" height="25" viewBox="0 0 26 25" fill="none" xmlns="http://www.w3.org/2000/svg">
<path d="M4.46875 3.51562V18.9453C4.46875 19.2043 4.36175 19.4527 4.17128 19.6358C3.98081 19.819 3.72249 19.9219 3.45312 19.9219C3.18376 19.9219 2.92544 19.819 2.73497 19.6358C2.5445 19.4527 2.4375 19.2043 2.4375 18.9453V7.42187H0.8125V18.9453C0.813293 19.6185 1.09176 20.2639 1.5868 20.7399C2.08184 21.2159 2.75303 21.4836 3.45312 21.4844H22.5469C23.247 21.4836 23.9182 21.2159 24.4132 20.7399C24.9082 20.2639 25.1867 19.6185 25.1875 18.9453V3.51562H4.46875ZM23.5625 18.9453C23.5622 19.2042 23.4551 19.4524 23.2647 19.6355C23.0743 19.8186 22.8161 19.9216 22.5469 19.9219H5.89062C6.02507 19.6125 6.09412 19.2806 6.09375 18.9453V5.07812H23.5625V18.9453Z" fill="#00CBA2"/>
<path d="M15.0312 6.64062H7.71875V14.4531H15.0312V6.64062ZM13.4062 12.8906H9.34375V8.20313H13.4062V12.8906Z" fill="#00CBA2"/>
<path d="M16.6562 6.64062H21.9375V8.20312H16.6562V6.64062Z" fill="#00CBA2"/>
<path d="M16.6562 9.76562H21.9375V11.3281H16.6562V9.76562Z" fill="#00CBA2"/>
<path d="M16.6562 12.8906H21.9375V14.4531H16.6562V12.8906Z" fill="#00CBA2"/>
</svg>
