<svg width="28" height="26" viewBox="0 0 28 26" fill="none" xmlns="http://www.w3.org/2000/svg">
<path d="M7.29167 4.33334H20.7083C21.6768 4.33328 22.6086 4.67736 23.3126 5.29499C24.0166 5.91261 24.4393 6.75697 24.4942 7.65484L24.5 7.85418V18.1458C24.5001 19.0452 24.1295 19.9104 23.4644 20.5641C22.7992 21.2178 21.8899 21.6103 20.923 21.6613L20.7083 21.6667H7.29167C6.32317 21.6667 5.39137 21.3227 4.6874 20.705C3.98343 20.0874 3.56067 19.243 3.50583 18.3452L3.5 18.1458V7.85418C3.49994 6.95486 3.87048 6.08961 4.53562 5.43593C5.20075 4.78224 6.11006 4.38968 7.077 4.33876L7.29167 4.33334H20.7083H7.29167ZM20.7083 5.95834H7.29167C6.77928 5.95836 6.28563 6.13728 5.90871 6.45958C5.53179 6.78188 5.29916 7.224 5.257 7.69818L5.25 7.85418V18.1458C5.25002 18.6216 5.4427 19.08 5.78979 19.43C6.13689 19.78 6.61302 19.996 7.12367 20.0352L7.29167 20.0417H20.7083C21.2209 20.0416 21.7147 19.8626 22.0917 19.54C22.4686 19.2175 22.7011 18.7751 22.743 18.3008L22.75 18.1458V7.85418C22.75 7.37822 22.5571 6.91968 22.2098 6.56966C21.8624 6.21964 21.386 6.00374 20.8752 5.96484L20.7083 5.95834ZM11.7285 10.3838C11.7897 10.2704 11.8917 10.1806 12.0168 10.1299C12.142 10.0793 12.2823 10.0709 12.4133 10.1064L12.5113 10.1422L17.6237 12.5147C17.7128 12.556 17.789 12.6177 17.8451 12.6941C17.9012 12.7705 17.9354 12.8589 17.9443 12.951C17.9531 13.0431 17.9365 13.1358 17.8959 13.2202C17.8553 13.3046 17.7921 13.378 17.7123 13.4333L17.6237 13.4843L12.5113 15.8578C12.4304 15.8955 12.3411 15.9152 12.2505 15.9153C12.1599 15.9154 12.0706 15.8959 11.9895 15.8584C11.9085 15.8209 11.8379 15.7663 11.7835 15.6991C11.7291 15.6319 11.6923 15.5538 11.676 15.4711L11.6667 15.3725V10.6264C11.6667 10.5422 11.6878 10.4591 11.7285 10.3838Z" fill="#00CBA2"/>
</svg>
