<svg width="266" height="71" viewBox="0 0 266 71" fill="none" xmlns="http://www.w3.org/2000/svg">
<path d="M250.215 71V65.0073H258.749V5.99239H250.215V0H266V71H250.215Z" fill="#2B2A29"/>
<path d="M246.892 53.9326C245.835 54.843 244.525 55.5383 242.965 56.0186C241.404 56.4992 239.793 56.7394 238.131 56.7394C234.103 56.7394 230.981 55.652 228.766 53.4775C226.55 51.303 225.443 48.193 225.443 44.1475V22.0738H218.646V16.0811H225.443V7.28198H232.693V16.0811H244.173V22.0738H232.693V43.844C232.693 46.0185 233.234 47.6873 234.317 48.8503C235.399 50.0137 236.948 50.5951 238.962 50.5951C241.177 50.5951 243.065 49.9629 244.626 48.6987L246.892 53.9326Z" fill="#2B2A29"/>
<path d="M194.553 21.8462C191.079 21.8462 188.171 22.9082 185.83 25.0321C183.489 27.1561 182.117 29.9374 181.714 33.376H207.392C206.99 29.9879 205.617 27.2192 203.276 25.0701C200.935 22.9207 198.027 21.8462 194.553 21.8462ZM214.341 36.4104C214.341 36.9666 214.29 37.6997 214.19 38.61H181.714C182.167 42.15 183.715 44.9945 186.359 47.1438C189.002 49.2929 192.287 50.3675 196.215 50.3675C200.998 50.3675 204.85 48.7492 207.77 45.5127L211.773 50.2158C209.96 52.3398 207.707 53.958 205.013 55.0706C202.319 56.1831 199.311 56.7394 195.988 56.7394C191.759 56.7394 188.008 55.867 184.735 54.1222C181.462 52.3778 178.932 49.9377 177.144 46.8023C175.357 43.6669 174.463 40.1272 174.463 36.1828C174.463 32.2889 175.332 28.7743 177.069 25.6389C178.806 22.5035 181.198 20.0635 184.244 18.319C187.29 16.5742 190.726 15.7019 194.553 15.7019C198.38 15.7019 201.791 16.5742 204.787 18.319C207.783 20.0635 210.124 22.5035 211.81 25.6389C213.497 28.7743 214.341 32.3646 214.341 36.4104Z" fill="#2B2A29"/>
<path d="M172.5 16.0811L154.978 56.2842H147.576L130.054 16.0811H137.607L151.352 48.3195L165.4 16.0811H172.5Z" fill="#2B2A29"/>
<path d="M111.475 56.7394C108.202 56.7394 105.056 56.2967 102.034 55.4118C99.0135 54.5269 96.6469 53.4018 94.9351 52.0363L97.9562 46.2715C99.7184 47.5356 101.858 48.547 104.376 49.3055C106.893 50.0642 109.436 50.4434 112.004 50.4434C118.348 50.4434 121.52 48.6227 121.52 44.9819C121.52 43.7683 121.092 42.8074 120.236 42.0995C119.38 41.3913 118.31 40.873 117.026 40.5444C115.742 40.2157 113.917 39.849 111.551 39.4444C108.328 38.9387 105.698 38.3573 103.658 37.6997C101.619 37.0423 99.8694 35.9298 98.4094 34.3621C96.9491 32.7944 96.219 30.5947 96.219 27.7629C96.219 24.1218 97.7296 21.2014 100.751 19.0015C103.772 16.8018 107.825 15.7019 112.91 15.7019C115.579 15.7019 118.247 16.0306 120.916 16.6879C123.584 17.3455 125.775 18.2305 127.487 19.343L124.39 25.1078C121.117 22.9838 117.265 21.9221 112.835 21.9221C109.763 21.9221 107.422 22.4276 105.811 23.439C104.199 24.4504 103.394 25.7906 103.394 27.4593C103.394 28.7743 103.847 29.8109 104.753 30.5693C105.66 31.328 106.78 31.8843 108.114 32.2381C109.448 32.5922 111.324 32.9968 113.741 33.452C116.963 34.0083 119.569 34.6025 121.558 35.2344C123.547 35.8667 125.246 36.9412 126.656 38.4584C128.065 39.9755 128.771 42.0995 128.771 44.8303C128.771 48.4711 127.222 51.3663 124.126 53.5154C121.029 55.6648 116.812 56.7394 111.475 56.7394Z" fill="#2B2A29"/>
<path d="M68.5012 32.3141H88.8175V38.61H68.5012V32.3141Z" fill="#2B2A29"/>
<path d="M28.0955 3.03403H52.7166V7.58549H28.0955V3.03403Z" fill="#2B2A29"/>
<path d="M40.4815 21.8462C37.0072 21.8462 34.0995 22.9082 31.7585 25.0321C29.4171 27.1561 28.045 29.9374 27.6422 33.376H53.3206C52.918 29.9879 51.5459 27.2192 49.2046 25.0701C46.8633 22.9207 43.9556 21.8462 40.4815 21.8462ZM60.269 36.4104C60.269 36.9666 60.2187 37.6997 60.118 38.61H27.6422C28.0954 42.15 29.6437 44.9945 32.287 47.1438C34.9303 49.2929 38.2158 50.3675 42.1431 50.3675C46.9264 50.3675 50.778 48.7492 53.6985 45.5127L57.7014 50.2158C55.8886 52.3398 53.6354 53.958 50.9418 55.0706C48.2479 56.1831 45.2396 56.7394 41.9165 56.7394C37.687 56.7394 33.936 55.867 30.6633 54.1222C27.3905 52.3778 24.8604 49.9377 23.0729 46.8023C21.2854 43.6669 20.3918 40.1272 20.3918 36.1828C20.3918 32.2889 21.2604 28.7743 22.9973 25.6389C24.7345 22.5035 27.1261 20.0635 30.1723 18.319C33.2184 16.5742 36.6549 15.7019 40.4815 15.7019C44.3081 15.7019 47.7194 16.5742 50.7152 18.319C53.711 20.0635 56.0523 22.5035 57.7389 25.6389C59.4257 28.7743 60.269 32.3646 60.269 36.4104Z" fill="#2B2A29"/>
<path d="M0 0H15.7849V5.99239H7.25032V65.0073H15.7849V71H0V0Z" fill="#2B2A29"/>
</svg>
