<svg width="111" height="30" viewBox="0 0 111 30" fill="none" xmlns="http://www.w3.org/2000/svg">
<path d="M104.413 30V27.4679H107.974V2.532H104.413V0H111V30H104.413Z" fill="white"/>
<path d="M103.026 22.7885C102.585 23.1731 102.039 23.4669 101.387 23.6699C100.736 23.8729 100.064 23.9744 99.3704 23.9744C97.6896 23.9744 96.3869 23.5149 95.4624 22.5961C94.5379 21.6773 94.0757 20.3632 94.0757 18.6539V9.32695H91.2393V6.79484H94.0757V3.0769H97.1012V6.79484H101.892V9.32695H97.1012V18.5256C97.1012 19.4444 97.3271 20.1496 97.7789 20.641C98.2306 21.1325 98.8767 21.3782 99.7171 21.3782C100.642 21.3782 101.43 21.1111 102.081 20.5769L103.026 22.7885Z" fill="white"/>
<path d="M81.1857 9.23076C79.7359 9.23076 78.5225 9.67949 77.5456 10.5769C76.5686 11.4744 75.996 12.6496 75.8279 14.1025H86.5433C86.3753 12.6709 85.8028 11.5011 84.8258 10.593C83.8487 9.6848 82.6354 9.23076 81.1857 9.23076ZM89.4429 15.3846C89.4429 15.6197 89.4219 15.9294 89.3799 16.3141H75.8279C76.017 17.8099 76.6631 19.0117 77.7662 19.9199C78.8692 20.828 80.2402 21.282 81.879 21.282C83.8751 21.282 85.4823 20.5983 86.701 19.2307L88.3714 21.2179C87.6149 22.1154 86.6747 22.7992 85.5507 23.2692C84.4265 23.7393 83.1712 23.9744 81.7845 23.9744C80.0195 23.9744 78.4543 23.6058 77.0886 22.8685C75.7229 22.1314 74.6671 21.1004 73.9212 19.7756C73.1753 18.4508 72.8024 16.9551 72.8024 15.2885C72.8024 13.6432 73.1648 12.1582 73.8896 10.8333C74.6145 9.50852 75.6126 8.4775 76.8837 7.7404C78.1548 7.00319 79.5889 6.63458 81.1857 6.63458C82.7825 6.63458 84.206 7.00319 85.4561 7.7404C86.7062 8.4775 87.6833 9.50852 88.3871 10.8333C89.091 12.1582 89.4429 13.6752 89.4429 15.3846Z" fill="white"/>
<path d="M71.9829 6.7948L64.6712 23.782H61.5826L54.2709 6.7948H57.4225L63.1584 20.4166L69.0204 6.7948H71.9829Z" fill="white"/>
<path d="M46.5178 23.9744C45.1521 23.9744 43.839 23.7873 42.5783 23.4134C41.3177 23.0395 40.3301 22.5641 39.6158 21.9871L40.8764 19.5513C41.6118 20.0855 42.5048 20.5128 43.5553 20.8333C44.6059 21.1539 45.6669 21.3141 46.7385 21.3141C49.3857 21.3141 50.7094 20.5448 50.7094 19.0064C50.7094 18.4936 50.5309 18.0876 50.1737 17.7885C49.8165 17.4893 49.3701 17.2703 48.8343 17.1314C48.2985 16.9925 47.5368 16.8376 46.5494 16.6666C45.2047 16.453 44.1069 16.2073 43.2559 15.9294C42.4049 15.6517 41.6748 15.1816 41.0656 14.5192C40.4562 13.8568 40.1515 12.9273 40.1515 11.7308C40.1515 10.1923 40.7819 8.95832 42.0426 8.02878C43.3032 7.09935 44.9945 6.63458 47.1166 6.63458C48.2302 6.63458 49.3437 6.77346 50.4573 7.05121C51.5709 7.32908 52.4849 7.703 53.1993 8.17308L51.9071 10.6089C50.5414 9.71147 48.9341 9.26286 47.0851 9.26286C45.8034 9.26286 44.8264 9.47643 44.1541 9.90379C43.4817 10.3312 43.1456 10.8974 43.1456 11.6025C43.1456 12.1582 43.3347 12.5961 43.7128 12.9166C44.0911 13.2372 44.5585 13.4722 45.1153 13.6217C45.6721 13.7713 46.4548 13.9423 47.4633 14.1346C48.808 14.3697 49.8953 14.6208 50.7252 14.8878C51.5551 15.1549 52.2643 15.609 52.8526 16.25C53.4408 16.8911 53.7351 17.7885 53.7351 18.9423C53.7351 20.4807 53.0889 21.7041 51.7968 22.6121C50.5047 23.5203 48.745 23.9744 46.5178 23.9744Z" fill="white"/>
<path d="M28.5851 13.6538H37.0629V16.3141H28.5851V13.6538Z" fill="white"/>
<path d="M11.724 1.28198H21.9982V3.20513H11.724V1.28198Z" fill="white"/>
<path d="M16.8927 9.23076C15.4429 9.23076 14.2295 9.67949 13.2526 10.5769C12.2756 11.4744 11.703 12.6496 11.5349 14.1025H22.2504C22.0824 12.6709 21.5098 11.5011 20.5328 10.593C19.5557 9.6848 18.3424 9.23076 16.8927 9.23076ZM25.1499 15.3846C25.1499 15.6197 25.1289 15.9294 25.0869 16.3141H11.5349C11.724 17.8099 12.3701 19.0117 13.4732 19.9199C14.5762 20.828 15.9472 21.282 17.586 21.282C19.5821 21.282 21.1893 20.5983 22.408 19.2307L24.0784 21.2179C23.3219 22.1154 22.3817 22.7992 21.2577 23.2692C20.1335 23.7393 18.8782 23.9744 17.4915 23.9744C15.7265 23.9744 14.1613 23.6058 12.7956 22.8685C11.4299 22.1314 10.3741 21.1004 9.62819 19.7756C8.88229 18.4508 8.50939 16.9551 8.50939 15.2885C8.50939 13.6432 8.87184 12.1582 9.59664 10.8333C10.3215 9.50852 11.3196 8.4775 12.5907 7.7404C13.8618 7.00319 15.2959 6.63458 16.8927 6.63458C18.4895 6.63458 19.913 7.00319 21.1631 7.7404C22.4133 8.4775 23.3903 9.50852 24.0941 10.8333C24.798 12.1582 25.1499 13.6752 25.1499 15.3846Z" fill="white"/>
<path d="M0 0H6.58692V2.532H3.02551V27.4679H6.58692V30H0V0Z" fill="white"/>
</svg>
